<?xml version="1.0" encoding="iso-8859-1"?>
<!-- Generator: Adobe Illustrator 16.0.0, SVG Export Plug-In . SVG Version: 6.00 Build 0)  -->
<!DOCTYPE svg PUBLIC "-//W3C//DTD SVG 1.1//EN" "http://www.w3.org/Graphics/SVG/1.1/DTD/svg11.dtd">
<svg version="1.1" id="Layer_1" xmlns="http://www.w3.org/2000/svg" xmlns:xlink="http://www.w3.org/1999/xlink" x="0px" y="0px"
	 width="512px" height="512px" viewBox="0 0 512 512" style="enable-background:new 0 0 512 512;" xml:space="preserve">
<path d="M256,26.22c-81.569,0-147.93,63.047-147.93,140.543c0,54.028,20.928,84.706,41.178,114.388
	c16.882,24.736,34.339,50.314,35.394,84.912c0.26,8.539,6.353,15.552,14.384,17.29c-7.475,2.291-12.912,9.243-12.912,17.469
	c0,7.247,4.23,13.49,10.347,16.443c-6.116,2.954-10.347,9.196-10.347,16.444c0,10.091,8.18,18.271,18.271,18.271h11.167
	c3.45,19.216,20.24,33.801,40.448,33.801s36.999-14.585,40.448-33.801h11.167c10.091,0,18.271-8.18,18.271-18.271
	c0-7.248-4.23-13.49-10.347-16.444c6.116-2.953,10.347-9.196,10.347-16.443c0-8.189-5.388-15.12-12.813-17.44
	c8.026-1.742,14.115-8.752,14.375-17.288c1.054-34.586,18.483-60.164,35.354-84.922c20.22-29.668,41.128-60.346,41.128-114.408
	C403.93,89.267,337.569,26.22,256,26.22z M332.589,260.616c-15.517,22.771-34.314,50.356-40.014,86.645l-18.83-0.005l26.898-153.13
	c0.014-0.083,0.028-0.166,0.042-0.249c1.43-9.385-1.296-18.896-7.479-26.093c-5.983-6.964-14.709-11.121-23.341-11.121
	c-4.852,0-9.609,1.318-13.877,3.762c-4.269-2.444-9.024-3.762-13.877-3.762c-8.559,0-16.967,4.064-23.071,11.15
	c-6.308,7.324-9.134,16.813-7.753,26.035c0.014,0.093,0.029,0.185,0.045,0.277l26.897,153.12l-18.714-0.005
	c-5.705-36.313-24.54-63.912-40.091-86.697c-18.68-27.382-34.812-51.029-34.812-93.78c0-57.347,49.968-104.001,111.388-104.001
	s111.388,46.654,111.388,104.001C367.388,209.557,351.27,233.207,332.589,260.616z M255.987,319.488l-22.669-129.054
	c-0.537-3.92,1.643-6.947,2.612-8.071c1.783-2.069,4.208-3.406,6.18-3.406c2.472,0,4.369,1.851,5.28,2.953
	c2.118,2.566,5.27,4.051,8.597,4.051c3.326,0,6.479-1.485,8.596-4.051c0.912-1.103,2.809-2.953,5.282-2.953
	c2.189,0,4.653,1.286,6.43,3.354c1.133,1.319,2.935,4.115,2.365,8.103L255.987,319.488z"/>
</svg>
