<?xml version="1.0" encoding="utf-8"?>
<!-- Generator: Adobe Illustrator 15.0.0, SVG Export Plug-In . SVG Version: 6.00 Build 0)  -->
<!DOCTYPE svg PUBLIC "-//W3C//DTD SVG 1.1//EN" "http://www.w3.org/Graphics/SVG/1.1/DTD/svg11.dtd">
<svg version="1.1" id="Layer_1" xmlns="http://www.w3.org/2000/svg" xmlns:xlink="http://www.w3.org/1999/xlink" x="0px" y="0px"
	 width="26px" height="26px" viewBox="0 0 26 26" enable-background="new 0 0 26 26" xml:space="preserve">
<path d="M22.161,10.554V9.378h-0.065V8.257h-0.064V7.86h-0.458v0.396c0,0-11.083,0.078-13.018,0c-0.296,0-1.986,0.167-0.291,2.773
	c0,0,0.77,1.168-0.285,2.471c-1.041,1.284-1.51,3.885-1.632,4.671H6.314v0.468h4.803v-0.468l0-0.43
	c-2.075,0.382,1.434-4.447,1.278-3.634c0.113,0.029,0.23,0.047,0.352,0.047h1.25c0.772,0,1.797-0.826,1.797-1.599
	c0-0.335-0.118-0.642-0.314-0.883h6.185l0.2-0.736h0.262V10.58h-0.043l0.011-0.026H22.161z M13.999,13.47h-1.25
	c-0.092,0-0.181-0.015-0.265-0.04c0.073-0.429,0.129-0.813,0.169-1.112c0.105,0.347,0.31,0.71,0.713,0.867
	c0.028,0.011,0.057,0.016,0.086,0.016c0.094,0,0.184-0.058,0.221-0.15c0.047-0.123-0.014-0.26-0.136-0.308
	c-0.417-0.162-0.5-0.792-0.516-1.068h1.205c0.393,0.102,0.686,0.459,0.686,0.883C14.912,13.06,14.502,13.47,13.999,13.47z
	 M20.412,10.938h-6.174l1.072-0.357h5.102V10.938z"/>
</svg>
